<svg width="152" height="35" viewBox="0 0 152 35" fill="none" xmlns="http://www.w3.org/2000/svg">
<path d="M7.74832 22.102V20.86L14.0663 12.112H16.0283V20.68H17.8283V22.102H16.0283V25H14.4083V22.102H7.74832ZM14.4803 13.822L9.63832 20.68H14.4803V13.822ZM19.4646 18.358C19.4646 16.294 19.8006 14.686 20.4726 13.534C21.1446 12.37 22.3206 11.788 24.0006 11.788C25.6686 11.788 26.8386 12.37 27.5106 13.534C28.1826 14.686 28.5186 16.294 28.5186 18.358C28.5186 20.458 28.1826 22.09 27.5106 23.254C26.8386 24.418 25.6686 25 24.0006 25C22.3206 25 21.1446 24.418 20.4726 23.254C19.8006 22.09 19.4646 20.458 19.4646 18.358ZM26.8986 18.358C26.8986 17.314 26.8266 16.432 26.6826 15.712C26.5506 14.98 26.2686 14.392 25.8366 13.948C25.4166 13.504 24.8046 13.282 24.0006 13.282C23.1846 13.282 22.5606 13.504 22.1286 13.948C21.7086 14.392 21.4266 14.98 21.2826 15.712C21.1506 16.432 21.0846 17.314 21.0846 18.358C21.0846 19.438 21.1506 20.344 21.2826 21.076C21.4266 21.808 21.7086 22.396 22.1286 22.84C22.5606 23.284 23.1846 23.506 24.0006 23.506C24.8046 23.506 25.4166 23.284 25.8366 22.84C26.2686 22.396 26.5506 21.808 26.6826 21.076C26.8266 20.344 26.8986 19.438 26.8986 18.358ZM30.3714 22.102V20.86L36.6894 12.112H38.6514V20.68H40.4514V22.102H38.6514V25H37.0314V22.102H30.3714ZM37.1034 13.822L32.2614 20.68H37.1034V13.822Z" fill="black"/>
<line x1="53.1" y1="-4.37114e-09" x2="53.1" y2="35" stroke="black" stroke-width="0.2"/>
<path d="M72.011 17.563C72.011 18.085 71.831 18.52 71.471 18.868C71.117 19.21 70.574 19.381 69.842 19.381H68.636V22H67.817V15.727H69.842C70.55 15.727 71.087 15.898 71.453 16.24C71.825 16.582 72.011 17.023 72.011 17.563ZM69.842 18.706C70.298 18.706 70.634 18.607 70.85 18.409C71.066 18.211 71.174 17.929 71.174 17.563C71.174 16.789 70.73 16.402 69.842 16.402H68.636V18.706H69.842ZM72.7229 19.516C72.7229 19.012 72.8249 18.571 73.0289 18.193C73.2329 17.809 73.5119 17.512 73.8659 17.302C74.2259 17.092 74.6249 16.987 75.0629 16.987C75.4949 16.987 75.8699 17.08 76.1879 17.266C76.5059 17.452 76.7429 17.686 76.8989 17.968V17.068H77.7269V22H76.8989V21.082C76.7369 21.37 76.4939 21.61 76.1699 21.802C75.8519 21.988 75.4799 22.081 75.0539 22.081C74.6159 22.081 74.2199 21.973 73.8659 21.757C73.5119 21.541 73.2329 21.238 73.0289 20.848C72.8249 20.458 72.7229 20.014 72.7229 19.516ZM76.8989 19.525C76.8989 19.153 76.8239 18.829 76.6739 18.553C76.5239 18.277 76.3199 18.067 76.0619 17.923C75.8099 17.773 75.5309 17.698 75.2249 17.698C74.9189 17.698 74.6399 17.77 74.3879 17.914C74.1359 18.058 73.9349 18.268 73.7849 18.544C73.6349 18.82 73.5599 19.144 73.5599 19.516C73.5599 19.894 73.6349 20.224 73.7849 20.506C73.9349 20.782 74.1359 20.995 74.3879 21.145C74.6399 21.289 74.9189 21.361 75.2249 21.361C75.5309 21.361 75.8099 21.289 76.0619 21.145C76.3199 20.995 76.5239 20.782 76.6739 20.506C76.8239 20.224 76.8989 19.897 76.8989 19.525ZM81.145 16.987C81.571 16.987 81.943 17.08 82.261 17.266C82.585 17.452 82.825 17.686 82.981 17.968V17.068H83.809V22.108C83.809 22.558 83.713 22.957 83.521 23.305C83.329 23.659 83.053 23.935 82.693 24.133C82.339 24.331 81.925 24.43 81.451 24.43C80.803 24.43 80.263 24.277 79.831 23.971C79.399 23.665 79.144 23.248 79.066 22.72H79.876C79.966 23.02 80.152 23.26 80.434 23.44C80.716 23.626 81.055 23.719 81.451 23.719C81.901 23.719 82.267 23.578 82.549 23.296C82.837 23.014 82.981 22.618 82.981 22.108V21.073C82.819 21.361 82.579 21.601 82.261 21.793C81.943 21.985 81.571 22.081 81.145 22.081C80.707 22.081 80.308 21.973 79.948 21.757C79.594 21.541 79.315 21.238 79.111 20.848C78.907 20.458 78.805 20.014 78.805 19.516C78.805 19.012 78.907 18.571 79.111 18.193C79.315 17.809 79.594 17.512 79.948 17.302C80.308 17.092 80.707 16.987 81.145 16.987ZM82.981 19.525C82.981 19.153 82.906 18.829 82.756 18.553C82.606 18.277 82.402 18.067 82.144 17.923C81.892 17.773 81.613 17.698 81.307 17.698C81.001 17.698 80.722 17.77 80.47 17.914C80.218 18.058 80.017 18.268 79.867 18.544C79.717 18.82 79.642 19.144 79.642 19.516C79.642 19.894 79.717 20.224 79.867 20.506C80.017 20.782 80.218 20.995 80.47 21.145C80.722 21.289 81.001 21.361 81.307 21.361C81.613 21.361 81.892 21.289 82.144 21.145C82.402 20.995 82.606 20.782 82.756 20.506C82.906 20.224 82.981 19.897 82.981 19.525ZM89.693 19.345C89.693 19.501 89.684 19.666 89.666 19.84H85.724C85.754 20.326 85.919 20.707 86.219 20.983C86.525 21.253 86.894 21.388 87.326 21.388C87.68 21.388 87.974 21.307 88.208 21.145C88.448 20.977 88.616 20.755 88.712 20.479H89.594C89.462 20.953 89.198 21.34 88.802 21.64C88.406 21.934 87.914 22.081 87.326 22.081C86.858 22.081 86.438 21.976 86.066 21.766C85.7 21.556 85.412 21.259 85.202 20.875C84.992 20.485 84.887 20.035 84.887 19.525C84.887 19.015 84.989 18.568 85.193 18.184C85.397 17.8 85.682 17.506 86.048 17.302C86.42 17.092 86.846 16.987 87.326 16.987C87.794 16.987 88.208 17.089 88.568 17.293C88.928 17.497 89.204 17.779 89.396 18.139C89.594 18.493 89.693 18.895 89.693 19.345ZM88.847 19.174C88.847 18.862 88.778 18.595 88.64 18.373C88.502 18.145 88.313 17.974 88.073 17.86C87.839 17.74 87.578 17.68 87.29 17.68C86.876 17.68 86.522 17.812 86.228 18.076C85.94 18.34 85.775 18.706 85.733 19.174H88.847ZM95.5765 16.978C96.1765 16.978 96.6625 17.161 97.0345 17.527C97.4065 17.887 97.5925 18.409 97.5925 19.093V22H96.7825V19.21C96.7825 18.718 96.6595 18.343 96.4135 18.085C96.1675 17.821 95.8315 17.689 95.4055 17.689C94.9735 17.689 94.6285 17.824 94.3705 18.094C94.1185 18.364 93.9925 18.757 93.9925 19.273V22H93.1735V17.068H93.9925V17.77C94.1545 17.518 94.3735 17.323 94.6495 17.185C94.9315 17.047 95.2405 16.978 95.5765 16.978ZM101.081 22.081C100.619 22.081 100.199 21.976 99.8213 21.766C99.4493 21.556 99.1553 21.259 98.9393 20.875C98.7293 20.485 98.6243 20.035 98.6243 19.525C98.6243 19.021 98.7323 18.577 98.9483 18.193C99.1703 17.803 99.4703 17.506 99.8483 17.302C100.226 17.092 100.649 16.987 101.117 16.987C101.585 16.987 102.008 17.092 102.386 17.302C102.764 17.506 103.061 17.8 103.277 18.184C103.499 18.568 103.61 19.015 103.61 19.525C103.61 20.035 103.496 20.485 103.268 20.875C103.046 21.259 102.743 21.556 102.359 21.766C101.975 21.976 101.549 22.081 101.081 22.081ZM101.081 21.361C101.375 21.361 101.651 21.292 101.909 21.154C102.167 21.016 102.374 20.809 102.53 20.533C102.692 20.257 102.773 19.921 102.773 19.525C102.773 19.129 102.695 18.793 102.539 18.517C102.383 18.241 102.179 18.037 101.927 17.905C101.675 17.767 101.402 17.698 101.108 17.698C100.808 17.698 100.532 17.767 100.28 17.905C100.034 18.037 99.8363 18.241 99.6863 18.517C99.5363 18.793 99.4613 19.129 99.4613 19.525C99.4613 19.927 99.5333 20.266 99.6773 20.542C99.8273 20.818 100.025 21.025 100.271 21.163C100.517 21.295 100.787 21.361 101.081 21.361ZM105.686 17.743V20.65C105.686 20.89 105.737 21.061 105.839 21.163C105.941 21.259 106.118 21.307 106.37 21.307H106.973V22H106.235C105.779 22 105.437 21.895 105.209 21.685C104.981 21.475 104.867 21.13 104.867 20.65V17.743H104.228V17.068H104.867V15.826H105.686V17.068H106.973V17.743H105.686ZM112.372 17.743H111.337V22H110.518V17.743H109.879V17.068H110.518V16.717C110.518 16.165 110.659 15.763 110.941 15.511C111.229 15.253 111.688 15.124 112.318 15.124V15.808C111.958 15.808 111.703 15.88 111.553 16.024C111.409 16.162 111.337 16.393 111.337 16.717V17.068H112.372V17.743ZM115.478 22.081C115.016 22.081 114.596 21.976 114.218 21.766C113.846 21.556 113.552 21.259 113.336 20.875C113.126 20.485 113.021 20.035 113.021 19.525C113.021 19.021 113.129 18.577 113.345 18.193C113.567 17.803 113.867 17.506 114.245 17.302C114.623 17.092 115.046 16.987 115.514 16.987C115.982 16.987 116.405 17.092 116.783 17.302C117.161 17.506 117.458 17.8 117.674 18.184C117.896 18.568 118.007 19.015 118.007 19.525C118.007 20.035 117.893 20.485 117.665 20.875C117.443 21.259 117.14 21.556 116.756 21.766C116.372 21.976 115.946 22.081 115.478 22.081ZM115.478 21.361C115.772 21.361 116.048 21.292 116.306 21.154C116.564 21.016 116.771 20.809 116.927 20.533C117.089 20.257 117.17 19.921 117.17 19.525C117.17 19.129 117.092 18.793 116.936 18.517C116.78 18.241 116.576 18.037 116.324 17.905C116.072 17.767 115.799 17.698 115.505 17.698C115.205 17.698 114.929 17.767 114.677 17.905C114.431 18.037 114.233 18.241 114.083 18.517C113.933 18.793 113.858 19.129 113.858 19.525C113.858 19.927 113.93 20.266 114.074 20.542C114.224 20.818 114.422 21.025 114.668 21.163C114.914 21.295 115.184 21.361 115.478 21.361ZM123.458 17.068V22H122.639V21.271C122.483 21.523 122.264 21.721 121.982 21.865C121.706 22.003 121.4 22.072 121.064 22.072C120.68 22.072 120.335 21.994 120.029 21.838C119.723 21.676 119.48 21.436 119.3 21.118C119.126 20.8 119.039 20.413 119.039 19.957V17.068H119.849V19.849C119.849 20.335 119.972 20.71 120.218 20.974C120.464 21.232 120.8 21.361 121.226 21.361C121.664 21.361 122.009 21.226 122.261 20.956C122.513 20.686 122.639 20.293 122.639 19.777V17.068H123.458ZM127.243 16.978C127.843 16.978 128.329 17.161 128.701 17.527C129.073 17.887 129.259 18.409 129.259 19.093V22H128.449V19.21C128.449 18.718 128.326 18.343 128.08 18.085C127.834 17.821 127.498 17.689 127.072 17.689C126.64 17.689 126.295 17.824 126.037 18.094C125.785 18.364 125.659 18.757 125.659 19.273V22H124.84V17.068H125.659V17.77C125.821 17.518 126.04 17.323 126.316 17.185C126.598 17.047 126.907 16.978 127.243 16.978ZM130.291 19.516C130.291 19.012 130.393 18.571 130.597 18.193C130.801 17.809 131.08 17.512 131.434 17.302C131.794 17.092 132.196 16.987 132.64 16.987C133.024 16.987 133.381 17.077 133.711 17.257C134.041 17.431 134.293 17.662 134.467 17.95V15.34H135.295V22H134.467V21.073C134.305 21.367 134.065 21.61 133.747 21.802C133.429 21.988 133.057 22.081 132.631 22.081C132.193 22.081 131.794 21.973 131.434 21.757C131.08 21.541 130.801 21.238 130.597 20.848C130.393 20.458 130.291 20.014 130.291 19.516ZM134.467 19.525C134.467 19.153 134.392 18.829 134.242 18.553C134.092 18.277 133.888 18.067 133.63 17.923C133.378 17.773 133.099 17.698 132.793 17.698C132.487 17.698 132.208 17.77 131.956 17.914C131.704 18.058 131.503 18.268 131.353 18.544C131.203 18.82 131.128 19.144 131.128 19.516C131.128 19.894 131.203 20.224 131.353 20.506C131.503 20.782 131.704 20.995 131.956 21.145C132.208 21.289 132.487 21.361 132.793 21.361C133.099 21.361 133.378 21.289 133.63 21.145C133.888 20.995 134.092 20.782 134.242 20.506C134.392 20.224 134.467 19.897 134.467 19.525ZM136.94 22.054C136.784 22.054 136.652 22 136.544 21.892C136.436 21.784 136.382 21.652 136.382 21.496C136.382 21.34 136.436 21.208 136.544 21.1C136.652 20.992 136.784 20.938 136.94 20.938C137.09 20.938 137.216 20.992 137.318 21.1C137.426 21.208 137.48 21.34 137.48 21.496C137.48 21.652 137.426 21.784 137.318 21.892C137.216 22 137.09 22.054 136.94 22.054Z" fill="black"/>
</svg>
