<svg width="224" height="156" viewBox="0 0 224 156" fill="none" xmlns="http://www.w3.org/2000/svg">
<rect y="10" width="224" height="120" fill="#14D21C"/>
<path d="M61.9688 32.4688L59.3438 38.0938C59.0312 37.7188 58.4375 37.3125 57.5625 36.875C56.6875 36.375 55.625 35.9375 54.375 35.5625C53.1875 35.1875 51.875 34.875 50.4375 34.625C49 34.3125 47.5938 34.1562 46.2188 34.1562C44.8438 34.1562 43.5312 34.3125 42.2812 34.625C41.0938 34.875 40.0312 35.3125 39.0938 35.9375C38.1562 36.5625 37.4062 37.4062 36.8438 38.4688C36.3438 39.5312 36.0938 40.8125 36.0938 42.3125C36.0938 44.3125 36.8438 46.3125 38.3438 48.3125C39.9062 50.25 42.2812 51.7812 45.4688 52.9062C49.5938 54.5312 52.8125 56.25 55.125 58.0625C57.5 59.875 59.25 61.6875 60.375 63.5C61.5625 65.3125 62.3125 67.0938 62.625 68.8438C62.9375 70.5938 63.0938 72.2188 63.0938 73.7188C62.9062 78.9062 61.25 82.9375 58.125 85.8125C55 88.6875 50.375 90.125 44.25 90.125C41.75 90.125 39 89.8438 36 89.2812C33.0625 88.7812 29.8438 87.9688 26.3438 86.8438L28.4062 80.2812C30.3438 81.0312 32.75 81.75 35.625 82.4375C38.5625 83.0625 41.4688 83.375 44.3438 83.375C46.0312 83.375 47.625 83.2188 49.125 82.9062C50.625 82.5938 51.9375 82.0938 53.0625 81.4062C54.1875 80.6562 55.0625 79.6875 55.6875 78.5C56.375 77.3125 56.7188 75.8438 56.7188 74.0938C56.6562 71.0938 55.9375 68.6875 54.5625 66.875C53.25 65.0625 51.5938 63.5625 49.5938 62.375C47.5938 61.1875 45.4375 60.125 43.125 59.1875C40.8125 58.25 38.6562 57.125 36.6562 55.8125C34.7188 54.5 33.0938 52.8438 31.7812 50.8438C30.4688 48.8438 29.8125 46.1875 29.8125 42.875C29.8125 40.1875 30.2188 37.9062 31.0312 36.0312C31.8438 34.1562 32.9688 32.6562 34.4062 31.5312C35.9062 30.3438 37.625 29.5 39.5625 29C41.5625 28.4375 43.7188 28.1562 46.0312 28.1562C49.0312 28.1562 51.9375 28.5625 54.75 29.375C57.5625 30.125 59.9688 31.1562 61.9688 32.4688ZM89.5312 95.2812L81.4688 94.7188V62.4688L67.0312 28.7188L72.6562 25.5312L86.7188 55.5312L103.406 28.7188L108.469 31.5312L89.5312 62.6562V95.2812ZM121.781 40.5312V89.0938H114.469V30.0312L123.469 28.7188L137.906 66.2188L154.781 29.8438L161.906 30.4062L166.406 90.5938H160.031L156.656 41.2812L139.594 76.1562L135.469 75.5938L121.781 40.5312ZM197.344 87.0312H175.031V81.7812H182.344V34.9062H171.844V29.8438L192.469 28.5312V33.9688L185.719 34.5312V81.4062H197.344V87.0312Z" fill="white"/>
</svg>
