<svg width="237" height="97" viewBox="0 0 237 97" fill="none" xmlns="http://www.w3.org/2000/svg">
<rect x="1.5" y="1.5" width="234" height="94" stroke="#0070F3" stroke-width="3"/>
<path d="M72.1092 53.88C72.1092 55.92 71.5452 57.456 70.4172 58.488C69.3132 59.496 67.7172 60 65.6292 60H60.8772V57.264H65.9892C66.8772 57.264 67.5972 57 68.1492 56.472C68.7012 55.944 68.9772 55.308 68.9772 54.564V50.82C68.9772 50.1 68.7852 49.524 68.4012 49.092C68.0412 48.636 67.4892 48.408 66.7452 48.408H66.0252C64.2492 48.408 62.8452 47.892 61.8132 46.86C60.7812 45.804 60.2652 44.28 60.2652 42.288V40.92C60.2652 38.88 60.8172 37.356 61.9212 36.348C63.0492 35.316 64.6572 34.8 66.7452 34.8H71.5332V37.536H66.3852C65.4972 37.536 64.7772 37.8 64.2252 38.328C63.6732 38.856 63.3972 39.492 63.3972 40.236V42.972C63.3972 43.716 63.6372 44.34 64.1172 44.844C64.5972 45.324 65.2212 45.564 65.9892 45.564H66.7092C68.4132 45.564 69.7332 46.056 70.6692 47.04C71.6292 48.024 72.1092 49.512 72.1092 51.504V53.88ZM102.334 48.3V60H99.0937V48.3L92.6497 34.8H96.1057L100.858 45.276L105.61 34.8H108.886L102.334 48.3ZM144.245 60V37.392L140.393 51.54H137.405L133.553 37.392V60H130.673V34.8H135.749L139.025 47.688L142.265 34.8H147.233V60H144.245ZM169.909 60V57.372H172.429V37.428H169.909V34.8H178.081V37.428H175.561V57.372H178.081V60H169.909Z" fill="#0070F3"/>
</svg>
