<svg width="154" height="31" viewBox="0 0 154 31" fill="none" xmlns="http://www.w3.org/2000/svg">
<path d="M10.291 5.76172H10.6074C11.7559 5.76172 13.0215 6.17187 14.4043 6.99219C15.1543 7.67188 15.6113 8.01172 15.7754 8.01172H15.9863C16.1738 7.89453 16.2676 7.76562 16.2676 7.625V7.55469L16.0918 7.02734C16.0918 6.93359 16.1738 6.875 16.3379 6.85156C16.4785 6.89844 16.6074 6.99219 16.7246 7.13281H16.7949V7.02734C16.7949 6.76953 16.6191 6.48828 16.2676 6.18359C16.3613 6.11328 16.6074 6.07812 17.0059 6.07812C17.0996 6.07812 17.5215 6.3125 18.2715 6.78125C18.4355 6.78125 18.5176 6.86328 18.5176 7.02734V10.332C18.5176 11.8789 18.4004 12.7695 18.166 13.0039L18.1309 13.1094L18.2363 13.25V13.2852C18.2363 13.6367 17.7207 13.8125 16.6895 13.8125C16.4551 13.9297 16.3027 13.9883 16.2324 13.9883H16.0918C16.0918 13.6133 15.8223 12.9453 15.2832 11.9844C14.8848 10.4375 14.5098 9.52344 14.1582 9.24219C13.7832 8.79688 12.7285 8.43359 10.9941 8.15234L9.97461 8.04688L8.60352 8.1875L8.35742 7.94141C7.93555 7.98828 7.18555 8.49219 6.10742 9.45312L6.03711 9.73438V9.80469H6.17773C7.13867 9.00781 7.83008 8.50391 8.25195 8.29297V8.36328C7.68945 8.97266 6.6582 9.75781 5.1582 10.7188C4.52539 11.1875 4.04492 11.832 3.7168 12.6523C3.13086 13.9883 2.83789 15.3008 2.83789 16.5898C2.83789 18.8164 3.10742 20.4336 3.64648 21.4414C4.58398 23.9961 5.66211 25.8125 6.88086 26.8906C8.45117 27.7578 9.93945 28.1914 11.3457 28.1914H11.9082C12.6113 28.1914 13.373 27.9336 14.1934 27.418C14.4746 26.8789 15.0957 26.2227 16.0566 25.4492C16.8535 24.8164 17.252 24.3008 17.252 23.9023V23.7969L17.2168 22.8477C17.2168 22.7773 17.3574 22.6484 17.6387 22.4609C17.6387 22.3672 17.6973 22.2852 17.8145 22.2148H17.9199L18.7637 22.3555H19.3613C19.5488 22.3555 19.6426 22.5195 19.6426 22.8477C19.877 23.9258 19.9941 24.7344 19.9941 25.2734C19.9941 26.4688 19.8418 27.4531 19.5371 28.2266V28.332L19.5723 28.5781L19.3965 28.8594V28.9297C19.3965 28.9766 19.5957 29.0352 19.9941 29.1055V29.1758L17.6738 30.3008H17.6035C17.2285 29.8086 16.9355 29.2344 16.7246 28.5781L16.6895 28.543C16.3848 28.6602 15.8574 28.9531 15.1074 29.4219C13.2559 30.1953 12.1191 30.582 11.6973 30.582L9.58789 29.9492L9.16602 29.8789H8.95508L8.49805 30.0195C7.95898 30.0195 7.0918 29.7734 5.89648 29.2812C4.93555 29.0469 4.11523 28.4023 3.43555 27.3477C1.79492 24.9805 0.974609 23.1523 0.974609 21.8633C0.763672 21.0195 0.658203 20.375 0.658203 19.9297C0.681641 19.6953 0.833984 19.5781 1.11523 19.5781L1.18555 19.8945V20.0703H1.32617L1.4668 19.9648V19.8242C1.4668 19.5195 1.19727 19.3086 0.658203 19.1914C0.587891 19.1914 0.541016 17.9141 0.517578 15.3594C0.517578 14.7969 0.833984 13.7539 1.4668 12.2305C1.51367 12.2305 1.57227 11.8906 1.64258 11.2109C1.73633 11.1875 1.83008 10.918 1.92383 10.4023C2.62695 9.60547 3.49414 8.86719 4.52539 8.1875C4.9707 7.76562 5.65039 7.35547 6.56445 6.95703C8.32227 6.16016 9.56445 5.76172 10.291 5.76172ZM9.0957 6.53516V6.64062H9.16602C9.4707 6.61719 9.62305 6.54688 9.62305 6.42969L9.51758 6.39453H9.48242C9.24805 6.39453 9.11914 6.44141 9.0957 6.53516ZM11.416 6.39453H11.3809V6.5L11.9434 6.60547H12.0137L12.084 6.5C12.084 6.42969 11.8613 6.39453 11.416 6.39453ZM6.07227 7.66016V7.73047H6.10742C6.50586 7.63672 6.96289 7.41406 7.47852 7.0625V7.02734L7.4082 6.99219H7.37305C6.85742 7.08594 6.42383 7.30859 6.07227 7.66016ZM11.2051 7.34375C11.2051 7.4375 11.709 7.56641 12.7168 7.73047L12.8926 7.87109H13.1387L13.2441 7.73047V7.66016C13.0098 7.66016 12.7637 7.54297 12.5059 7.30859C12.0605 7.12109 11.7441 7.02734 11.5566 7.02734C11.3223 7.02734 11.2051 7.13281 11.2051 7.34375ZM15.3887 8.36328H15.2832V8.43359C15.4707 8.71484 15.6465 8.85547 15.8105 8.85547H15.8457L15.9863 8.75V8.71484C15.7754 8.48047 15.5762 8.36328 15.3887 8.36328ZM5.7207 9.10156H5.82617C5.91992 9.07813 5.99023 9.01953 6.03711 8.92578H5.9668C5.87305 8.92578 5.79102 8.98437 5.7207 9.10156ZM5.33398 9.55859H5.47461L5.61523 9.45312V9.3125C5.42773 9.3125 5.33398 9.39453 5.33398 9.55859ZM15.8105 9.45312L15.7402 9.55859V9.62891L15.8457 9.69922L15.9863 9.55859L15.8457 9.45312H15.8105ZM2.97852 10.4023C3.25977 10.4023 3.45898 10.2969 3.57617 10.0859V9.98047H3.43555C3.20117 9.98047 3.04883 10.1211 2.97852 10.4023ZM17.0059 11.7383L16.9355 11.8086V11.9141L17.041 11.9492L17.1465 11.8438L17.1113 11.7383H17.0059ZM16.4434 12.582V12.6523C16.8418 12.5352 17.041 12.418 17.041 12.3008C16.9941 12.207 16.9355 12.1367 16.8652 12.0898H16.7246C16.5371 12.2773 16.4434 12.4414 16.4434 12.582ZM16.584 13.1445L16.4434 13.2852V13.4609H16.584C16.7246 13.4609 16.8184 13.4023 16.8652 13.2852V13.25L16.7949 13.1445H16.584ZM2.41602 14.6914V14.7617H2.52148L2.69727 14.6211V14.375H2.55664C2.46289 14.4453 2.41602 14.5508 2.41602 14.6914ZM1.32617 15.043H1.25586L1.11523 15.5703V15.8867H1.18555C1.2793 15.8867 1.32617 15.7695 1.32617 15.5352V15.043ZM1.18555 16.2383H1.04492V16.4141H1.18555L1.25586 16.3438L1.18555 16.2383ZM2.13477 19.0508V19.6836C2.18164 20.2461 2.49805 20.9492 3.08398 21.793L3.1543 21.8633H3.29492V21.6875C2.84961 20.3516 2.5332 19.0156 2.3457 17.6797H2.31055C2.19336 17.6797 2.13477 18.1367 2.13477 19.0508ZM1.4668 17.8906H1.43164L1.39648 18.1016V18.418L1.50195 18.5586L1.60742 18.4531V18.2422C1.60742 18.0312 1.56055 17.9141 1.4668 17.8906ZM1.39648 20.4922H1.29102V20.5977L1.43164 20.7031H1.4668V20.5977L1.39648 20.4922ZM2.20508 21.8984L2.09961 21.9688C2.09961 22.1094 2.1582 22.2031 2.27539 22.25H2.31055L2.41602 22.2148V22.1094L2.20508 21.8984ZM2.16992 22.8477H2.13477V22.918C2.22852 23.4336 2.35742 23.6914 2.52148 23.6914H2.55664C2.65039 23.6914 2.69727 23.6445 2.69727 23.5508L2.16992 22.8477ZM18.0957 23.7617L17.9902 23.7969V23.8672L18.166 24.043H18.2363C18.4941 23.9961 18.623 23.9375 18.623 23.8672V23.7969L18.5879 23.7617H18.0957ZM18.4824 24.5703V24.7109C18.5527 24.8516 18.6465 24.9219 18.7637 24.9219C18.8574 24.8281 18.9043 24.6875 18.9043 24.5V24.3242C18.9043 24.2539 18.8574 24.2188 18.7637 24.2188C18.5762 24.2891 18.4824 24.4062 18.4824 24.5703ZM18.0957 24.6758L17.9902 24.7461V25.2031L18.1309 25.3438H18.166L18.2715 25.2383V24.9922C18.2715 24.8281 18.2129 24.7227 18.0957 24.6758ZM4.0332 25.0273V25.0625C4.4082 25.7891 4.72461 26.1523 4.98242 26.1523V26.0117C4.53711 25.4023 4.2207 25.0742 4.0332 25.0273ZM2.87305 25.1328L2.80273 25.2383L2.87305 25.3438H2.94336L3.04883 25.2383L2.94336 25.1328H2.87305ZM17.0059 25.5195L16.9355 25.5898V25.6953H17.1113L17.2168 25.5898V25.5195H17.0059ZM18.2715 25.5195H18.1309V25.6602H18.2363L18.2715 25.5547V25.5195ZM3.22461 25.6953H3.18945V25.7305C3.18945 25.8008 3.25977 25.9648 3.40039 26.2227H3.57617V26.1523C3.57617 25.9883 3.45898 25.8359 3.22461 25.6953ZM16.6895 26.1523V26.2227H16.7246L16.9355 26.1172V26.0117H16.8652C16.748 26.0586 16.6895 26.1055 16.6895 26.1523ZM5.33398 26.3281L5.22852 26.3984C5.22852 26.7031 5.45117 26.9023 5.89648 26.9961H5.9668L6.10742 26.8906C5.91992 26.6328 5.66211 26.4453 5.33398 26.3281ZM18.377 26.3984H18.3418V26.6445L18.4473 26.75H18.4824V26.4688L18.377 26.3984ZM3.85742 26.5391H3.75195C3.93945 27.0781 4.17383 27.4297 4.45508 27.5938H4.66602V27.3477C4.50195 27.0898 4.23242 26.8203 3.85742 26.5391ZM6.49414 27.5234H6.2832V27.5586C6.2832 27.6289 6.59961 27.7344 7.23242 27.875V27.8047C7.11523 27.6172 6.86914 27.5234 6.49414 27.5234ZM15.9863 27.9805V28.0508C16.1504 28.0508 16.2793 27.9688 16.373 27.8047V27.7695H16.3379C16.1504 27.7695 16.0332 27.8398 15.9863 27.9805ZM18.2715 27.9805L18.2363 28.0508L18.2715 28.2266L18.4473 28.1914V28.0508L18.3418 27.9805H18.2715ZM5.61523 28.4375L5.54492 28.543C5.56836 28.6367 6.07227 28.8359 7.05664 29.1406C7.05664 29.2344 7.25586 29.2812 7.6543 29.2812L7.83008 29.2109V29.1758C7.80664 29.082 7.37305 28.8711 6.5293 28.543C6.45898 28.4727 6.25977 28.4375 5.93164 28.4375H5.61523ZM7.30273 28.4375L7.26758 28.4727V28.543C7.87695 28.9414 8.62695 29.1406 9.51758 29.1406H9.76367L9.83398 29.0703C8.5918 28.6484 7.74805 28.4375 7.30273 28.4375ZM10.1504 28.8242C10.4316 29.1289 10.9004 29.2812 11.5566 29.2812C12.3301 29.2109 12.7168 29.0938 12.7168 28.9297V28.8594C12.7168 28.7422 12.4238 28.6836 11.8379 28.6836H11.3105C10.5371 28.6836 10.1504 28.7305 10.1504 28.8242ZM14.2637 28.8242L14.1934 28.9297H14.334L14.4043 28.8594L14.3691 28.8242H14.2637ZM18.3418 29.2109L17.8145 29.2812V29.4219L17.9902 29.5625H18.166C18.7285 29.4688 19.0098 29.375 19.0098 29.2812V29.2109H18.3418ZM12.084 29.8086L11.0645 30.0898V30.1953L11.627 30.3008H11.8379C12.0723 30.3008 12.6582 30.043 13.5957 29.5273V29.4219H13.5605C13.3496 29.4219 12.8574 29.5508 12.084 29.8086ZM21.7168 3.26562L22.4199 3.23047C25.4199 3.34766 26.9199 3.61719 26.9199 4.03906L27.166 9.20703C27.166 9.67578 26.9082 10.8594 26.3926 12.7578C26.2754 13.5078 26.2168 14 26.2168 14.2344V14.4453H26.3223C27.8926 13.2266 29.6855 12.6172 31.7012 12.6172C32.2871 12.6172 33.3652 12.957 34.9355 13.6367C35.2402 13.8711 35.627 14.3516 36.0957 15.0781C36.2598 15.1719 36.3652 15.3242 36.4121 15.5352L36.377 15.8867C37.0332 16.4023 37.3613 17.3281 37.3613 18.6641C37.4316 18.6641 37.4902 19.8125 37.5371 22.1094V22.1797C37.5371 22.6016 37.3496 23.8906 36.9746 26.0469L36.834 26.7148H37.5723C38.3457 26.7383 38.7324 26.8438 38.7324 27.0312C38.7324 27.125 38.3574 27.207 37.6074 27.2773C37.6074 27.3711 37.877 27.4766 38.416 27.5938L38.5566 27.8047V27.875C38.1113 27.9453 37.8887 28.0039 37.8887 28.0508C38.334 28.1445 38.5566 28.2969 38.5566 28.5078C38.5566 29.6094 38.2402 30.1602 37.6074 30.1602L37.3262 30.1953C36.4121 30.1953 35.9551 30.0664 35.9551 29.8086C35.9551 29.7383 35.4746 29.6797 34.5137 29.6328C34.0918 29.3984 33.752 29.2461 33.4941 29.1758L33.459 29.0352C33.459 28.0039 33.6113 26.5039 33.916 24.5352C34.0332 23.3867 34.2441 22.168 34.5488 20.8789L34.4785 19.6484L34.584 19.4727C34.2793 19.2383 34.127 18.8984 34.127 18.4531C33.8457 17.9609 33.6113 17.5742 33.4238 17.293C32.6035 16.9414 32.1113 16.7656 31.9473 16.7656C30.752 16.3672 29.5801 16.4141 28.4316 16.9062C26.9082 17.9375 26.1465 18.6992 26.1465 19.1914L25.9355 21.4766L26.0059 23.832C25.8652 25.5664 25.6895 26.4336 25.4785 26.4336L25.4434 26.6094L25.584 26.6445H25.7246L26.3223 26.3984C26.8848 26.4922 27.166 26.6797 27.166 26.9609L26.9199 27.1719V27.3125C26.9434 27.3828 27.0957 27.4648 27.377 27.5586L27.4473 27.7344C27.3066 28.9531 27.1309 29.5625 26.9199 29.5625H26.8145C26.5098 29.3516 25.2559 29.1875 23.0527 29.0703C21.4824 28.9297 20.6973 28.6953 20.6973 28.3672V27.8047C20.6738 27.7109 20.7441 27.5352 20.9082 27.2773V27.0664C20.627 26.668 20.4863 26.4336 20.4863 26.3633C20.6035 26.2695 21.166 26.2109 22.1738 26.1875C22.3379 26.1875 22.4551 25.7305 22.5254 24.8164C22.6895 24.7227 22.8301 24.3594 22.9473 23.7266C23.0879 23.5391 23.1582 23.3398 23.1582 23.1289V23.0938C23.1582 22.7188 23.041 22.3438 22.8066 21.9688L23.1582 21.125C23.3223 21.125 23.416 18.5586 23.4395 13.4258L23.9316 8.25781V6.71094C23.9316 6.19531 23.7676 5.9375 23.4395 5.9375L22.2793 5.90234L21.541 6.11328C21.4238 6.11328 21.3418 5.79688 21.2949 5.16406V4.8125C21.2949 3.78125 21.4355 3.26562 21.7168 3.26562ZM21.6465 28.2969V28.3672H21.7168C22.0215 28.3672 22.5957 28.5195 23.4395 28.8242C24.7285 28.8477 25.748 28.9297 26.498 29.0703H26.6035L26.709 28.9297V28.8945C26.709 28.6602 25.5957 28.543 23.3691 28.543C22.9941 28.3086 22.5254 28.1914 21.9629 28.1914C21.752 28.2148 21.6465 28.25 21.6465 28.2969ZM36.2012 25.1328H36.3066C36.4707 25.1328 36.6934 24.2539 36.9746 22.4961C36.9746 22.2383 36.8926 22.0742 36.7285 22.0039H36.5879C36.4473 22.0039 36.3184 23.0469 36.2012 25.1328ZM35.1465 17.8203L35.3574 17.2578C35.4512 17.4453 35.5098 17.5859 35.5332 17.6797C35.627 17.8438 35.7207 17.9258 35.8145 17.9258V17.6445C35.8145 17.1758 35.4863 16.625 34.8301 15.9922L34.6543 15.957H34.5137V16.0977C34.8418 16.4258 35.1113 16.7773 35.3223 17.1523L35.0059 17.6797L35.1465 17.8203ZM24.7051 9.41797C24.6348 9.55859 24.5996 9.98047 24.5996 10.6836C24.8809 10.6836 25.0215 10.8945 25.0215 11.3164H25.0566C25.127 11.1758 25.1621 10.9297 25.1621 10.5781V10.1211H25.127L24.9863 10.5078H24.8457L24.8105 10.2969C24.8574 10.1094 24.9043 10.0156 24.9512 10.0156L25.1621 10.0859C25.1152 9.94531 24.9629 9.72266 24.7051 9.41797ZM22.9121 26.082C22.9121 26.2461 23.2988 26.3633 24.0723 26.4336H24.1426L24.248 26.3633V26.082C24.2012 26.0117 24.1074 25.9766 23.9668 25.9766H23.2637C23.0293 25.9766 22.9121 26.0117 22.9121 26.082ZM34.0566 27.875H34.127L34.4785 27.9102L35.5684 27.875L35.6035 27.8398V27.8047C35.3691 27.6406 34.9941 27.5586 34.4785 27.5586C34.2676 27.5586 34.127 27.6641 34.0566 27.875ZM21.2598 27.1719V27.2773H21.5059H22.7363C22.7363 27.0898 22.373 26.9844 21.6465 26.9609C21.4121 26.9609 21.2832 27.0312 21.2598 27.1719ZM31.2793 15.5703L31.0332 15.6055V15.7812C31.5488 16.0391 31.877 16.168 32.0176 16.168L32.1582 15.9922C32.1582 15.8516 31.8652 15.7109 31.2793 15.5703ZM22.4902 3.75781V3.86328C22.7715 4.07422 23.1699 4.17969 23.6855 4.17969L23.7559 4.03906C23.2637 3.85156 22.8418 3.75781 22.4902 3.75781ZM25.4785 17.7852V18.0664H25.584C25.8184 18.0664 25.9707 17.8555 26.041 17.4336L26.0762 17.3984V17.2227H26.041C25.877 17.3164 25.6895 17.5039 25.4785 17.7852ZM25.8301 3.93359L25.6895 4.10938C25.7598 4.22656 25.8652 4.32031 26.0059 4.39062H26.041C26.2051 4.39062 26.3105 4.33203 26.3574 4.21484V4.14453L26.2168 3.93359H25.8301ZM34.2324 28.7539H33.8457V28.8594C33.8691 29 34.0215 29.0703 34.3027 29.0703H34.6543V28.9648C34.6543 28.8945 34.5137 28.8242 34.2324 28.7539ZM26.0762 27.2773L26.0059 27.3125V27.4883L26.2168 27.6641H26.3926L26.5684 27.5234V27.4883L26.3223 27.2773H26.0762ZM23.1934 5.02344L23.0176 5.05859V5.12891C23.041 5.19922 23.123 5.23438 23.2637 5.23438H23.5449L23.7559 5.16406V5.05859L23.5449 5.02344H23.1934ZM34.7949 26.6445V26.7852H35.0762L35.1816 26.7148V26.5391L35.0762 26.4336C34.9355 26.4336 34.8418 26.5039 34.7949 26.6445ZM25.8652 18.418L25.9707 18.5234H26.2168C26.3574 18.5234 26.4395 18.4883 26.4629 18.418L26.3574 18.3125H26.2168C26.0293 18.3125 25.9121 18.3477 25.8652 18.418ZM33.916 13.7773V13.8828C34.0098 14.0469 34.1855 14.1289 34.4434 14.1289V14.0234C34.3496 13.8594 34.1738 13.7773 33.916 13.7773ZM33.2832 16.4492V16.5195C33.2832 16.7305 33.4004 16.8359 33.6348 16.8359V16.8008C33.6113 16.5664 33.4941 16.4492 33.2832 16.4492ZM25.0566 7.30859L24.9863 7.41406V7.66016L25.0566 7.76562L25.1973 7.66016V7.44922L25.0566 7.30859ZM22.9121 4.46094H22.8066V4.49609L22.8418 4.63672H23.2988V4.49609L22.9121 4.46094ZM27.2363 15.8867H27.3418C27.5996 15.6992 27.7285 15.582 27.7285 15.5352H27.623C27.3887 15.6523 27.2598 15.7695 27.2363 15.8867ZM36.5879 16.8711L36.4824 16.9766V17.0469L36.6934 17.1875H36.7637L36.834 17.1172L36.6582 16.8711H36.5879ZM32.0527 13.0039H32.0176V13.0391C32.0176 13.1094 32.1699 13.1797 32.4746 13.25V13.2148C32.4746 13.0977 32.334 13.0273 32.0527 13.0039ZM25.0215 8.36328L24.9512 8.46875V8.57422L25.0566 8.67969L25.1973 8.64453V8.53906L25.0566 8.36328H25.0215ZM30.3652 14.9023H30.1191V14.9727L30.2246 15.0781H30.4707V15.0078L30.3652 14.9023ZM28.748 16.5195L28.6074 16.6602V16.7656H28.7129L28.8535 16.625V16.5195H28.748ZM34.127 28.2617L34.0215 28.3672V28.4023L34.127 28.5078H34.1973L34.2324 28.3672L34.127 28.2617ZM21.9629 4.21484H21.9277V4.49609H21.9629L22.0684 4.39062V4.28516L21.9629 4.21484ZM36.834 21.4062L36.7285 21.4766L36.834 21.582H36.9043V21.4766L36.834 21.4062ZM26.3574 26.8555H26.2168V26.9609H26.3574V26.8555ZM30.6465 15.957L30.5762 16.0273H30.7168V15.957H30.6465ZM35.3926 17.1523L35.3574 17.2227C35.3105 17.2227 35.3105 17.1992 35.3574 17.1523L35.3926 17.1172V17.1523ZM44.0059 9.94531L48.3652 9.83984C48.7402 9.83984 49.5254 10.0039 50.7207 10.332C52.0801 11.6211 52.8887 12.6289 53.1465 13.3555C53.6621 13.8945 54.0723 14.9609 54.377 16.5547C54.752 16.9297 54.9395 17.7617 54.9395 19.0508L54.9746 19.9297L54.834 23.4102C54.834 24.1133 55.2676 24.9805 56.1348 26.0117C56.9316 26.7852 57.4473 27.1719 57.6816 27.1719V27.2422C57.6816 27.5234 57.2715 27.9688 56.4512 28.5781C55.8418 29.1875 55.4551 29.4922 55.291 29.4922H55.2559C54.8809 29.4453 53.9316 28.7539 52.4082 27.418C49.6426 28.4961 48.248 29.0469 48.2246 29.0703C47.3105 29.3516 46.291 29.4922 45.166 29.4922H44.9902C43.7246 29.2812 42.6465 28.7891 41.7559 28.0156C41.5918 27.875 41.252 27.2891 40.7363 26.2578C40.3145 25.7422 40.1035 25.1094 40.1035 24.3594V23.3398C40.1035 22.6836 40.2793 22.0742 40.6309 21.5117C40.9355 20.5508 41.4629 19.6367 42.2129 18.7695C42.5879 18.3242 42.9629 18.043 43.3379 17.9258C44.5566 17.2695 45.7637 16.9414 46.959 16.9414L48.541 16.9062H48.752C49.6426 16.9062 50.2754 17.0352 50.6504 17.293H50.8613C50.9785 17.293 51.0371 17.2461 51.0371 17.1523C50.7793 16.0508 50.3574 14.9961 49.7715 13.9883C49.2559 13.1211 48.2949 12.6875 46.8887 12.6875L45.4473 12.4766C44.2051 12.7344 43.584 12.9922 43.584 13.25C43.0918 13.8828 42.7988 14.668 42.7051 15.6055C42.6582 15.7227 42.2363 15.7812 41.4395 15.7812L41.2285 15.8516C41.1348 15.8516 41.0176 16.0508 40.877 16.4492C40.2207 16.3555 39.8926 16.2148 39.8926 16.0273C39.9395 15.8867 40.0215 15.043 40.1387 13.4961C40.5137 12.418 41.4043 11.4219 42.8105 10.5078C43.4668 10.1328 43.8652 9.94531 44.0059 9.94531ZM47.9434 10.543L47.873 10.6484L47.9785 10.7891H48.1895L48.2246 10.7188L48.1191 10.543H47.9434ZM50.6152 10.8242H50.5449V10.8945C50.7324 11.082 50.8965 11.1758 51.0371 11.1758H51.0723V11.1055C50.8848 10.918 50.7324 10.8242 50.6152 10.8242ZM44.9902 11V11.1055C45.0137 11.1758 45.1309 11.2109 45.3418 11.2109C45.5527 11.2109 45.8457 11.1406 46.2207 11V10.8594H46.0801C45.5645 10.8594 45.2012 10.9063 44.9902 11ZM41.8262 12.125V12.1953H41.8613C42.0723 12.1953 42.3887 11.9727 42.8105 11.5273V11.4219H42.7754C42.541 11.4219 42.2246 11.6562 41.8262 12.125ZM46.7129 11.8789L46.5371 12.0195L46.6426 12.1953H47.0996L47.2051 12.0898L46.9941 11.8789H46.7129ZM41.5449 14.7266L41.4395 14.7969V15.3242H41.4746C41.5684 15.3008 41.6152 15.2188 41.6152 15.0781V14.7969L41.5449 14.7266ZM54.3066 17.5391H54.2715V17.6094C54.3184 17.7969 54.3652 17.8906 54.4121 17.8906L54.4473 17.7148C54.4004 17.5977 54.3535 17.5391 54.3066 17.5391ZM53.498 18.7695L53.3926 18.8398V18.9453C53.4863 19.2969 53.5801 19.4727 53.6738 19.4727H53.7441C53.7441 19.168 53.6738 18.9336 53.5332 18.7695H53.498ZM43.1973 18.9805L42.8105 19.1562V19.332H42.8809C43.0449 19.332 43.1621 19.2383 43.2324 19.0508V18.9805H43.1973ZM42.8105 22.3203C42.9746 23.7266 43.1738 24.4297 43.4082 24.4297L43.7598 24.8867V24.9219L43.4434 24.8867V24.9922C43.8887 25.6016 44.8027 26.1641 46.1855 26.6797C46.3496 26.7734 46.584 26.8438 46.8887 26.8906C47.3105 26.8906 48.9277 26.1992 51.7402 24.8164C51.9277 24.6992 52.0215 24.5703 52.0215 24.4297V24.2539C51.8105 23.293 51.6348 22.168 51.4941 20.8789L51.4238 20.8438C51.4238 20.5859 51.166 20.375 50.6504 20.2109C48.916 19.7188 47.7324 19.4727 47.0996 19.4727C45.3184 19.8711 44.0996 20.4688 43.4434 21.2656C43.0215 21.6875 42.8105 22.0391 42.8105 22.3203ZM53.3926 20.0352L53.2871 19.9648V20.0703H53.3926V20.0352ZM53.5332 20.7031H53.3223V20.8438L53.4277 20.9492L53.5332 20.8438V20.7031ZM52.4082 21.582L52.3027 21.6875L52.4082 21.8281L52.5488 21.793V21.6875L52.4434 21.582H52.4082ZM53.6738 21.6875H53.5684V21.7227C53.6152 22.6133 53.709 23.0586 53.8496 23.0586L53.9199 22.9883V22.918C53.9199 22.4258 53.8379 22.0156 53.6738 21.6875ZM52.3027 22.8125L52.2676 22.8477V23.0586L52.373 23.1992H52.4082L52.5488 23.0586V22.8477L52.4434 22.8125H52.3027ZM55.291 26.1172H55.1855V26.3281C55.2793 26.6328 55.3848 26.7852 55.502 26.7852H55.6074V26.6797C55.5137 26.3047 55.4082 26.1172 55.291 26.1172ZM42.3535 26.2227L42.2832 26.293V26.3281L42.3535 26.3984H42.5293V26.3281L42.4238 26.2227H42.3535ZM54.2012 26.6797L54.0957 26.7852C54.166 26.9492 54.2598 27.0547 54.377 27.1016H54.4121L54.5527 26.9609V26.8906L54.377 26.6797H54.2012ZM49.1035 27.1719V27.2422H49.2441C49.5723 27.2422 50.0059 27.1016 50.5449 26.8203V26.7852H50.4043C49.6074 26.8789 49.1738 27.0078 49.1035 27.1719ZM54.9746 27.2773L54.9043 27.418V27.4883L55.0449 27.6289H55.1855L55.291 27.5586V27.4883L55.1152 27.2773H54.9746ZM46.291 27.5586L46.1855 27.6641C46.2324 27.7812 46.3262 27.8398 46.4668 27.8398C46.7246 27.793 46.8535 27.7344 46.8535 27.6641V27.6289L46.748 27.5586H46.291ZM42.459 28.0508L42.3535 28.1914C42.4473 28.4023 43.0332 28.6719 44.1113 29C44.4629 29.1641 44.9316 29.2461 45.5176 29.2461V29.2109C45.5176 29.1406 45.0723 29.0117 44.1816 28.8242C43.666 28.6836 43.127 28.4258 42.5645 28.0508H42.459ZM71.6387 12.6172C72.5527 12.6172 73.3262 13.2617 73.959 14.5508C74.0762 14.5508 74.2402 14.7031 74.4512 15.0078L74.9082 17.6094C74.7441 17.8906 74.123 18.0312 73.0449 18.0312H72.6934C71.8262 17.8906 71.3926 17.5977 71.3926 17.1523C71.3926 16.8242 71.123 16.3672 70.584 15.7812C70.5137 15.6641 70.0098 15.6055 69.0723 15.6055C68.1816 15.6055 67.1035 15.8398 65.8379 16.3086C64.9473 17.2461 64.3613 17.9727 64.0801 18.4883C64.2441 22.4961 64.3027 25.0039 64.2559 26.0117C64.2559 26.2227 64.3965 26.3281 64.6777 26.3281H65.5215C65.8965 26.3516 66.084 26.4219 66.084 26.5391V26.5742L66.2246 27.0312L66.1543 29L65.9434 29.2812L64.291 29.457H64.1504L63.4473 29.668C60.752 29.5742 59.4043 29.4688 59.4043 29.3516C58.9355 29.3516 58.7012 29.1406 58.7012 28.7188C58.6543 28.2969 58.6309 27.8633 58.6309 27.418C58.6309 26.9727 59.0879 26.6797 60.002 26.5391C60.002 26.3516 60.3184 26.2578 60.9512 26.2578L61.0566 26.2227V26.1523L60.8457 16.5195C60.8457 15.9336 60.6934 15.6406 60.3887 15.6406H60.1777C59.8965 15.6406 59.4277 15.7695 58.7715 16.0273L58.7012 15.957V15.8867C58.7012 15.8398 58.7949 15.7812 58.9824 15.7109V15.6406C58.748 15.6406 58.6309 14.9844 58.6309 13.6719C58.584 13.6719 58.5488 13.4609 58.5254 13.0391C59.4629 12.3125 60.4473 11.9492 61.4785 11.9492H62.3574C62.709 11.9492 63.3066 12.0664 64.1504 12.3008V12.4062C63.9395 12.7344 63.834 12.9688 63.834 13.1094V13.3555C65.7324 12.5117 68.334 12.2656 71.6387 12.6172ZM62.4277 17.9258V18.1016C62.5449 18.3359 62.6035 18.582 62.6035 18.8398C62.5801 18.9336 62.5449 19.4141 62.498 20.2812L62.5684 21.6875H62.6035C62.6738 21.6875 62.7676 20.5977 62.8848 18.418C62.9316 18.418 62.9551 18.1836 62.9551 17.7148C62.9316 17.5039 62.873 17.3984 62.7793 17.3984H62.709C62.5215 17.5156 62.4277 17.6914 62.4277 17.9258ZM60.3184 28.543L59.8613 28.5781V28.6484C59.8613 28.7656 60.2012 28.8242 60.8809 28.8242H61.9355L62.1816 28.7891C62.1816 28.6719 61.5605 28.5898 60.3184 28.543ZM66.4004 14.1289V14.1992C66.6113 14.1992 66.8926 13.8594 67.2441 13.1797V13.0039H67.209C66.5996 13.1914 66.3301 13.5664 66.4004 14.1289ZM70.9355 15.2539H71.1113C71.2285 15.2305 71.4512 14.9492 71.7793 14.4102V14.375C71.7793 14.3281 71.7324 14.3047 71.6387 14.3047C71.2402 14.4922 71.041 14.7383 71.041 15.043C71.0176 15.043 70.9824 15.1133 70.9355 15.2539ZM62.8496 16.0625H62.709L62.5332 16.8008C62.5332 16.918 62.6035 17.0352 62.7441 17.1523H62.7793C62.8496 17.1523 62.9082 16.9883 62.9551 16.6602L62.8496 16.0625ZM67.7363 13.3555L67.9121 14.0586H68.1934V13.3203L68.0879 13.2148H67.9824C67.8184 13.2383 67.7363 13.2852 67.7363 13.3555ZM60.0723 27.9805L60.002 28.0508L60.0371 28.1211H61.9707V28.0156L60.7754 27.9805H60.0723ZM59.4395 13.3203C59.627 13.5078 59.8262 13.6016 60.0371 13.6016L60.0723 13.5312V13.2852L59.9316 13.1094C59.6035 13.1562 59.4395 13.2266 59.4395 13.3203ZM62.9902 28.2266L63.0957 28.332H63.623L63.7637 28.1914C63.7637 28.1445 63.7051 28.0977 63.5879 28.0508C63.1895 28.0977 62.9902 28.1562 62.9902 28.2266ZM73.1152 14.2695H73.0098V14.3398C73.1973 14.5273 73.3613 14.6211 73.502 14.6211H73.6074V14.5508C73.4199 14.3633 73.2559 14.2695 73.1152 14.2695ZM61.0566 12.6172H60.9512V12.7578L61.1621 13.0039H61.4785V12.9336L61.0566 12.6172ZM60.002 14.6914V14.7617H60.1074C60.3652 14.7617 60.5059 14.7148 60.5293 14.6211L60.459 14.5156H60.3887C60.1777 14.5156 60.0488 14.5742 60.002 14.6914ZM69.002 13.0391L68.5801 13.0742V13.1094L68.6504 13.2148H69.002C69.166 13.2148 69.2598 13.168 69.2832 13.0742L69.2129 13.0391H69.002ZM63.4473 24.3594L63.3066 24.4648V24.7461H63.4473L63.5879 24.6406V24.4297L63.5176 24.3594H63.4473ZM59.2285 28.1914L59.0879 28.0508L59.0176 28.1914V28.332L59.0879 28.4375H59.2285V28.1914ZM64.1504 14.9023L64.0098 14.9375V15.043L64.1504 15.1484H64.2559L64.3613 15.043V14.9375L64.1504 14.9023ZM69.7051 13.0039V13.0742H69.9512L70.0918 12.9688L69.9863 12.8633C69.7988 12.9102 69.7051 12.957 69.7051 13.0039ZM72.0254 13.0039L71.9551 13.0742V13.1094L72.0254 13.2148H72.166L72.2363 13.1094V13.0742L72.166 13.0039H72.0254ZM63.4824 12.6523L63.3066 12.7227V12.8633H63.4824L63.5879 12.7227L63.4824 12.6523ZM63.377 13.2852L63.2363 13.3906V13.4609L63.3066 13.5312L63.4824 13.3906V13.2852H63.377ZM71.9199 16.2031V16.2734H71.9902L72.1309 16.168V16.0625H72.0957C71.9785 16.1328 71.9199 16.1797 71.9199 16.2031ZM70.7246 13.1094L70.584 13.2148V13.25H70.7598L70.8301 13.1797V13.1094H70.7246ZM63.4473 25.1328H63.377V25.2734H63.4473V25.1328ZM77.4043 2.73828L77.9316 2.59766L79.4082 2.98438L81.6934 2.87891C82.2793 2.87891 82.5723 3.05469 82.5723 3.40625C82.4316 4.29688 82.3613 5.48047 82.3613 6.95703V12.4766L82.3262 17.7852L82.3613 19.1914L82.1855 25.8711C82.9824 26.082 84.1895 26.2344 85.8066 26.3281L85.8418 26.3633V26.8555C85.8418 26.9727 85.9707 27.1602 86.2285 27.418C85.9707 27.9805 85.6777 28.8125 85.3496 29.9141L85.0332 30.1602H84.9277C84.7871 29.9492 84.4941 29.8438 84.0488 29.8438L78.2832 29.0703C76.5488 29.0703 75.6816 28.9648 75.6816 28.7539C75.9629 28.1914 76.1738 27.2773 76.3145 26.0117H76.3496V25.9766L76.7012 26.0117H77.0527C77.1699 25.9414 77.5098 25.8477 78.0723 25.7305C78.3066 25.8477 78.4824 25.9062 78.5996 25.9062H79.0215C79.2559 25.9062 79.373 25.6719 79.373 25.2031C79.4199 24.6406 79.5371 22.0742 79.7246 17.5039C79.5605 16.0977 79.4199 12.2305 79.3027 5.90234C79.209 5.73828 79.0918 5.65625 78.9512 5.65625L77.3691 5.76172C77.0879 5.73828 76.9473 5.64453 76.9473 5.48047C77.041 3.65234 77.1934 2.73828 77.4043 2.73828ZM77.7559 3.40625L77.5449 3.47656V3.54688C77.5449 3.75781 77.6621 3.86328 77.8965 3.86328H78.002C78.2598 3.86328 78.5176 3.73438 78.7754 3.47656V3.40625H77.7559ZM79.5488 3.40625L79.4785 3.51172L79.7598 3.58203H80.1113L80.252 3.47656V3.40625H79.5488ZM80.6738 4.77734V4.8125L80.7793 4.91797H80.9199C81.1309 4.77734 81.3887 4.63672 81.6934 4.49609C81.8105 4.30859 81.8691 4.16797 81.8691 4.07422L81.7988 4.00391H81.6934C81.4824 4.00391 81.2715 4.13281 81.0605 4.39062C80.8027 4.46094 80.6738 4.58984 80.6738 4.77734ZM77.5801 4.21484L77.4043 4.39062V4.63672L77.5449 4.77734H78.248H78.4941V4.63672L77.8613 4.35547L77.6504 4.21484H77.5801ZM80.3223 7.0625L80.252 7.16797V7.30859L80.3223 7.41406H80.3926L80.4277 7.30859V7.16797L80.3926 7.0625H80.3223ZM80.252 9.03125L80.1465 9.13672V9.20703H80.3223V9.03125H80.252ZM81.7988 11.457H81.6934V11.4922L81.834 11.668H81.8691V11.5625L81.7988 11.457ZM81.8691 12.0898L81.7285 11.9844L81.6934 12.6875V13.1094H81.7285C81.8223 13.1094 81.8691 12.9453 81.8691 12.6172V12.0898ZM80.041 12.8984V13.0391L80.1113 13.1094L80.1816 13.0391V12.8633L80.1465 12.793C80.1465 12.7695 80.2402 12.6992 80.4277 12.582V12.4766H80.2871C80.123 12.5703 80.041 12.7109 80.041 12.8984ZM81.834 13.3555H81.6934V13.6367H81.7285L81.834 13.5664V13.3555ZM80.5332 17.3633V17.4688H80.6035C80.7207 17.4688 80.7793 16.9883 80.7793 16.0273C80.7324 16.0273 80.6504 16.4727 80.5332 17.3633ZM81.3418 19.0156L81.2715 19.0859L81.2012 21.3008V24.2539L81.2715 25.625L81.3066 25.6602H81.5527C81.6465 25.6602 81.6934 25.5547 81.6934 25.3438C81.6699 21.125 81.5527 19.0156 81.3418 19.0156ZM79.9004 24.2539V24.3945C79.9004 24.5586 79.9473 24.6406 80.041 24.6406L80.1816 24.4297V24.1836C80.1348 23.9023 80.0879 23.7617 80.041 23.7617C79.9473 23.7617 79.9004 23.9258 79.9004 24.2539ZM77.791 26.5391L77.7207 26.6445C77.7207 26.832 77.8027 26.9258 77.9668 26.9258H78.002V26.6445L77.8965 26.5391H77.791ZM84.7168 26.5391L84.5059 26.5742V26.6445C84.5293 26.7852 84.7285 26.8555 85.1035 26.8555L85.2793 26.7148V26.5742L85.0684 26.5391H84.7168ZM76.7715 26.6445L76.7012 26.75V26.8555L76.8418 26.9258L76.9121 26.7852L76.877 26.6445H76.7715ZM78.4941 27.0312V27.0664L78.6699 27.1016H78.8809L79.0215 27.0312V26.9258H78.7754H78.7402C78.5762 26.9258 78.4941 26.9609 78.4941 27.0312ZM84.8574 27.5938L82.8535 27.5234V27.5586C82.8535 27.6992 83.252 27.7812 84.0488 27.8047H84.9629L85.209 27.7344V27.6289L84.8574 27.5938ZM78.248 27.6289L78.1426 27.8047L78.2129 27.9102H78.7402C79.1152 27.9102 79.3027 27.875 79.3027 27.8047V27.7344C79.0449 27.6641 78.7168 27.6289 78.3184 27.6289H78.248ZM83.7324 28.5078L83.873 28.543H84.5762C84.7871 28.543 84.9043 28.5078 84.9277 28.4375V28.332L84.7168 28.2969H84.1895C83.8848 28.3203 83.7324 28.3906 83.7324 28.5078ZM76.3496 28.332L76.2441 28.5078L76.3496 28.543H76.5254L76.6309 28.5078L76.4902 28.332H76.3496ZM84.752 29.1758H84.541V29.3164L84.752 29.3867H84.8574L85.0684 29.3164V29.1758H84.8574H84.752ZM96.3535 12.3711L97.3379 12.6523H97.6543C98.9902 13.3086 100.232 14.0938 101.381 15.0078C102.576 16.0391 103.174 16.8125 103.174 17.3281H103.104C102.916 17 102.729 16.8359 102.541 16.8359H102.506C102.436 16.8359 102.4 16.8828 102.4 16.9766C102.494 17.2344 102.705 17.6797 103.033 18.3125H103.104C103.15 18.3125 103.209 18.1953 103.279 17.9609H103.314C103.385 17.9844 103.467 18.3242 103.561 18.9805L103.877 19.6836L103.807 20.1406L103.912 21.4062C103.748 21.9922 103.596 22.7656 103.455 23.7266C103.361 24.1719 102.271 25.8359 100.186 28.7188C99.248 29.6094 98.334 30.0547 97.4434 30.0547C96.623 30.1484 95.6973 30.1953 94.666 30.1953H93.998C93.5996 30.1953 92.5566 29.8555 90.8691 29.1758C88.7363 27.2773 87.6699 25.8242 87.6699 24.8164C87.3652 24.1836 87.1074 23.5977 86.8965 23.0586C86.8965 22.7539 87.2129 21.7461 87.8457 20.0352C87.8457 18.957 88.1035 18.207 88.6191 17.7852C89.7207 15.418 91.1152 13.8828 92.8027 13.1797C94.2793 12.6406 95.4629 12.3711 96.3535 12.3711ZM90.0254 23.4102V23.6211C90.3535 24.2539 90.7168 24.9336 91.1152 25.6602C91.1152 25.8945 91.5605 26.2227 92.4512 26.6445C92.873 27.1367 93.6582 27.5234 94.8066 27.8047L95.4395 27.875C96.4707 27.6641 97.2441 27.4414 97.7598 27.207L99.0254 26.1523C100.338 24.7461 100.971 23.5625 100.924 22.6016V22.2852C100.783 21.9102 100.713 21.3008 100.713 20.457C100.713 19.8008 100.76 19.2852 100.854 18.9102C100.854 18.7461 100.396 18.3359 99.4824 17.6797C98.8262 16.7422 98.1465 16.168 97.4434 15.957H97.0215C94.2793 16.0742 92.9082 16.2969 92.9082 16.625C92.2988 17.2344 91.877 17.832 91.6426 18.418C90.8926 19.2148 90.5176 19.7422 90.5176 20C90.3066 20.9609 90.1426 22.0977 90.0254 23.4102ZM91.1152 14.9023L91.0098 15.0781V15.2188C91.1504 15.2188 91.8652 14.7266 93.1543 13.7422L93.4355 13.6367L93.6465 13.6719C95.2168 13.5078 96.002 13.3555 96.002 13.2148V13.1797L95.4395 13.0742C93.8457 13.0742 92.4043 13.6836 91.1152 14.9023ZM93.8574 15.6406V15.6758L93.9277 15.7812H94.4199L96.916 15.2188V15.1484L96.248 15.0078C94.6543 15.1953 93.8574 15.4062 93.8574 15.6406ZM88.3379 24.3945L88.1973 24.5V24.7461C88.2441 25.543 88.4668 25.9883 88.8652 26.082L88.9004 26.0469V26.0117C88.7363 24.9336 88.5488 24.3945 88.3379 24.3945ZM93.7871 14.4453V14.6211C95.6152 14.4102 96.5293 14.2695 96.5293 14.1992L96.248 14.0938H96.2129C95.0879 14.0938 94.2793 14.2109 93.7871 14.4453ZM96.7754 13.1094C96.8926 13.4375 97.1504 13.6016 97.5488 13.6016L97.9004 13.6367L97.9707 13.6016V13.4258C97.9707 13.168 97.7246 13.0156 97.2324 12.9688C96.9277 12.9922 96.7754 13.0391 96.7754 13.1094ZM90.377 27.9453H90.1309V28.0859C90.4355 28.3906 90.9863 28.543 91.7832 28.543H92.1699C92.0527 28.3789 91.4551 28.1797 90.377 27.9453ZM96.1777 29.2461V29.3164C96.1777 29.3867 96.3535 29.4453 96.7051 29.4922C97.1035 29.4922 97.3027 29.4336 97.3027 29.3164V29.2461C97.2793 29.1523 97.1973 29.0586 97.0566 28.9648H96.7402C96.4824 28.9648 96.2949 29.0586 96.1777 29.2461ZM102.857 22.5664C102.881 23.2695 102.939 23.6445 103.033 23.6914H103.104C103.104 23.4336 103.209 23.1523 103.42 22.8477V22.7422L103.033 22.2148H102.963C102.916 22.2148 102.881 22.332 102.857 22.5664ZM100.537 16.5195H100.396C100.537 16.8242 100.877 17.082 101.416 17.293H101.557L101.662 17.1875V17.1523C101.264 16.7305 100.889 16.5195 100.537 16.5195ZM99.7637 15.4297V15.5C99.834 15.7812 100.162 16.0742 100.748 16.3789H100.854L100.924 16.2734V16.2383C100.807 16.0742 100.42 15.8047 99.7637 15.4297ZM97.4434 14.2695L97.373 14.3047C97.8184 14.6562 98.1699 14.832 98.4277 14.832L98.4629 14.7617V14.7266C98.0879 14.4219 97.748 14.2695 97.4434 14.2695ZM92.7676 28.4023V28.5078C92.7676 28.6484 93.0957 28.7188 93.752 28.7188L93.7871 28.6836V28.6133C93.4824 28.4727 93.1426 28.4023 92.7676 28.4023ZM99.2363 13.8828L99.1309 13.9883C99.3887 14.3164 99.6465 14.4805 99.9043 14.4805C99.9043 14.2227 99.7051 14.0234 99.3066 13.8828H99.2363ZM90.6582 17.5039V17.75H90.7637C91.0684 17.4688 91.2207 17.2461 91.2207 17.082V17.0469H91.0449C90.9043 17.1406 90.7754 17.293 90.6582 17.5039ZM98.6035 15.8867C98.7441 16.1211 98.9082 16.2383 99.0957 16.2383L99.1309 16.168V16.0977C99.1309 15.8867 99.0371 15.7812 98.8496 15.7812C98.6855 15.8047 98.6035 15.8398 98.6035 15.8867ZM102.014 25.1328V25.168C102.201 25.168 102.365 24.9805 102.506 24.6055V24.5352H102.4C102.26 24.5352 102.131 24.7344 102.014 25.1328ZM91.3965 15.6758C91.6074 15.6758 91.8066 15.5352 91.9941 15.2539V15.1484C91.5957 15.2656 91.3965 15.4414 91.3965 15.6758ZM102.576 24.5H102.752L102.893 24.6055C102.916 24.2305 102.857 24.0664 102.717 24.1133H102.646L102.611 23.8672L102.576 24.5ZM98.0762 29.4922H98.1113C98.5332 29.3516 98.7441 29.2344 98.7441 29.1406L98.6738 29.0703C98.3457 29.1875 98.1465 29.3281 98.0762 29.4922ZM89.6387 26.7148L89.498 26.7852V26.8555L89.7793 27.1367H89.9199C89.9199 26.9727 89.8262 26.832 89.6387 26.7148ZM92.0293 28.8945V28.9297H92.4863L92.5566 28.8594L92.4863 28.7539H92.416C92.1816 28.7539 92.0527 28.8008 92.0293 28.8945ZM103.42 20.0703L103.314 20.1758V20.3164L103.42 20.457L103.561 20.3164V20.1758L103.455 20.0703H103.42ZM88.5488 18.9453C88.666 18.9453 88.7715 18.8633 88.8652 18.6992V18.6289C88.6543 18.6289 88.5488 18.7344 88.5488 18.9453ZM87.459 22.7422L87.3887 22.8477C87.4121 23.0586 87.4473 23.1641 87.4941 23.1641L87.5645 23.1289V22.9531L87.4941 22.7422H87.459ZM96.8457 14.6211V14.6562L97.1973 14.375L97.127 14.3398C96.8926 14.4805 96.7988 14.5742 96.8457 14.6211ZM89.252 17.75H89.2871C89.3809 17.7266 89.4277 17.6328 89.4277 17.4688H89.3574C89.2871 17.5156 89.252 17.6094 89.252 17.75ZM89.4629 21.9688L89.3223 22.1094V22.1797H89.4277L89.498 22.0742V21.9688H89.4629ZM91.5371 16.6602H91.3965V16.8008H91.4668L91.5371 16.7305V16.6602ZM112.525 0.734375C113.041 0.734375 113.463 0.875 113.791 1.15625C113.51 1.90625 113.322 3.08984 113.229 4.70703L112.912 7.94141C112.912 8.10547 113.381 8.1875 114.318 8.1875C117.084 8.1875 118.467 8.31641 118.467 8.57422C118.584 8.57422 118.725 8.64453 118.889 8.78516C118.654 9.08984 118.537 9.3125 118.537 9.45312V9.55859L118.643 10.2617L118.186 11.8086C118.186 11.9727 118.361 12.207 118.713 12.5117V12.582C118.15 12.7695 117.693 12.8633 117.342 12.8633C116.967 12.8398 116.779 12.7812 116.779 12.6875V12.6172L117.096 12.582H117.342L117.482 12.4414V12.3711L117.342 12.3359L114.986 12.3711L113.053 12.3359C112.936 12.3359 112.807 12.9922 112.666 14.3047H112.631L112.139 13.7422L112.033 14.1289V14.3398C112.057 14.9961 112.139 15.3477 112.279 15.3945C112.373 15.3945 112.455 15.1836 112.525 14.7617V14.5156H112.631L112.666 14.6211L112.42 17.9961C112.701 22.8477 112.947 25.2734 113.158 25.2734C113.275 26.0234 113.568 26.3984 114.037 26.3984C114.295 26.5625 114.611 26.6445 114.986 26.6445H115.619L117.729 26.5391C117.775 26.5391 117.857 27.1602 117.975 28.4023C118.021 28.7773 117.939 29.0469 117.729 29.2109C117.541 29.3984 117.213 29.4922 116.744 29.4922L114.037 29.5625C112.561 29.5625 111.318 29.1523 110.311 28.332C109.654 28.0977 109.326 27.3945 109.326 26.2227C109.279 25.5898 109.197 23.7148 109.08 20.5977L109.502 15.8164L109.607 13.7422V13.4609C109.443 12.4766 109.162 11.9844 108.764 11.9844H107.709H106.479C106.127 11.9844 105.775 12.0664 105.424 12.2305C105.189 12.207 104.896 11.8906 104.545 11.2812L105.248 8.15234C105.248 8.05859 106.666 8 109.502 7.97656C109.502 7.67188 109.666 7.28516 109.994 6.81641C110.088 3.16016 110.217 1.33203 110.381 1.33203V1.22656C110.381 1.17969 110.322 1.15625 110.205 1.15625V1.05078C110.205 0.980469 110.979 0.875 112.525 0.734375ZM111.189 1.68359H111.154V1.89453H111.26V1.75391L111.189 1.68359ZM112.701 1.75391L112.561 1.89453V1.96484L112.666 2.77344H112.736C113.018 2.49219 113.158 2.24609 113.158 2.03516V1.89453L113.053 1.75391H112.701ZM111.436 3.05469L111.33 2.94922C111.283 3.18359 111.26 3.48828 111.26 3.86328V4.00391H111.33L111.436 3.40625V3.05469ZM111.541 4.53125H111.471L111.33 8.01172V8.04688L111.436 8.15234H111.506C111.67 8.15234 111.752 7.85937 111.752 7.27344V6.46484L111.682 4.74219C111.635 4.60156 111.588 4.53125 111.541 4.53125ZM105.459 8.57422C105.459 8.73828 105.564 8.82031 105.775 8.82031H106.303C107.264 8.82031 108.154 8.77344 108.975 8.67969V8.60938C108.975 8.49219 108.4 8.43359 107.252 8.43359H105.775C105.564 8.43359 105.459 8.48047 105.459 8.57422ZM116.428 8.43359L115.971 8.60938H115.549H114.951V8.71484C115.467 8.85547 115.912 8.92578 116.287 8.92578H117.096C117.143 8.92578 117.166 8.89062 117.166 8.82031C117.119 8.5625 116.99 8.43359 116.779 8.43359H116.428ZM117.412 8.78516L117.307 8.85547V8.92578L117.412 8.96094C117.646 8.96094 117.775 8.91406 117.799 8.82031V8.78516H117.412ZM106.021 9.24219L105.951 9.3125V9.52344C105.951 9.75781 106.736 9.875 108.307 9.875C109.104 9.875 109.502 9.81641 109.502 9.69922C109.502 9.41797 108.471 9.26562 106.408 9.24219H106.021ZM113.51 9.55859L113.404 9.66406V9.69922C113.404 9.81641 113.826 9.88672 114.67 9.91016L115.268 9.875L116.076 10.0156H116.217C116.381 10.0156 116.463 9.94531 116.463 9.80469H116.428L113.756 9.55859H113.51ZM117.307 10.332L117.166 10.4727V10.5078L117.307 10.6133H117.482C117.693 10.6133 117.822 10.543 117.869 10.4023L117.764 10.332H117.307ZM106.338 10.4727L106.197 10.5781C106.197 10.6719 106.256 10.7188 106.373 10.7188L107.252 10.7539L108.201 10.7188L108.236 10.6836V10.6133C107.955 10.5195 107.428 10.4727 106.654 10.4727H106.338ZM109.08 11.1406L106.197 11.0352V11.1055C106.197 11.2695 107.088 11.3516 108.869 11.3516L109.15 11.2812V11.2461L109.08 11.1406ZM114.107 11.2461H113.932V11.3516C113.955 11.3984 114.365 11.5156 115.162 11.7031H115.232V11.6328C114.857 11.375 114.482 11.2461 114.107 11.2461ZM115.9 11.5977C116.533 11.8086 117.096 11.9141 117.588 11.9141L117.729 11.7734V11.5625L117.623 11.457H116.85C116.217 11.457 115.9 11.5039 115.9 11.5977ZM111.014 12.8633V13.1445L111.119 13.25C111.213 13.2266 111.26 13.1445 111.26 13.0039V12.8633L111.189 12.6172H111.154C111.061 12.6406 111.014 12.7227 111.014 12.8633ZM112.314 13.4961L112.139 13.3555V13.4609L112.279 13.6016H112.314V13.4961ZM111.189 13.5664H111.119L111.084 13.7422V13.918L111.119 14.1289H111.26V13.8125V13.6367L111.189 13.5664ZM111.26 15.9922H111.154V16.2734L111.26 16.4141H111.33V16.2734L111.26 15.9922ZM109.572 20.457L109.678 21.4414L109.643 22.6719L109.678 23.0234H109.783C109.924 23.0234 109.994 22.4727 109.994 21.3711V20.5625C109.994 19.4844 109.947 18.9453 109.854 18.9453C109.689 18.9453 109.596 19.4492 109.572 20.457ZM111.857 23.2344H111.787L111.752 23.4805V23.7617C111.752 23.9258 111.799 24.0195 111.893 24.043H111.963C112.057 24.0195 112.104 23.9375 112.104 23.7969C112.08 23.4219 111.998 23.2344 111.857 23.2344ZM112.139 24.7461L111.998 25.1328C111.998 25.6719 112.115 26.0117 112.35 26.1523L112.42 26.0117V25.6953C112.396 25.1094 112.303 24.793 112.139 24.7461ZM110.768 24.9922H110.662V25.5195L110.732 25.7305H110.768L110.838 25.6602V25.0625L110.768 24.9922ZM111.787 27.207V27.2422V27.4531C111.811 27.5469 111.893 27.6406 112.033 27.7344H112.279V27.6641C112.279 27.4062 112.115 27.2539 111.787 27.207ZM115.689 27.9102H115.83C116.697 27.7695 117.131 27.6172 117.131 27.4531L117.061 27.3828C116.146 27.6172 115.689 27.793 115.689 27.9102ZM110.908 27.418H110.838V27.5586C110.908 28.1445 111.166 28.4375 111.611 28.4375H111.963L112.033 28.332V28.2969C112.033 28.25 111.822 28.168 111.4 28.0508L110.908 27.418ZM128.205 0.734375C128.721 0.734375 129.143 0.875 129.471 1.15625C129.189 1.90625 129.002 3.08984 128.908 4.70703L128.592 7.94141C128.592 8.10547 129.061 8.1875 129.998 8.1875C132.764 8.1875 134.146 8.31641 134.146 8.57422C134.264 8.57422 134.404 8.64453 134.568 8.78516C134.334 9.08984 134.217 9.3125 134.217 9.45312V9.55859L134.322 10.2617L133.865 11.8086C133.865 11.9727 134.041 12.207 134.393 12.5117V12.582C133.83 12.7695 133.373 12.8633 133.021 12.8633C132.646 12.8398 132.459 12.7812 132.459 12.6875V12.6172L132.775 12.582H133.021L133.162 12.4414V12.3711L133.021 12.3359L130.666 12.3711L128.732 12.3359C128.615 12.3359 128.486 12.9922 128.346 14.3047H128.311L127.818 13.7422L127.713 14.1289V14.3398C127.736 14.9961 127.818 15.3477 127.959 15.3945C128.053 15.3945 128.135 15.1836 128.205 14.7617V14.5156H128.311L128.346 14.6211L128.1 17.9961C128.381 22.8477 128.627 25.2734 128.838 25.2734C128.955 26.0234 129.248 26.3984 129.717 26.3984C129.975 26.5625 130.291 26.6445 130.666 26.6445H131.299L133.408 26.5391C133.455 26.5391 133.537 27.1602 133.654 28.4023C133.701 28.7773 133.619 29.0469 133.408 29.2109C133.221 29.3984 132.893 29.4922 132.424 29.4922L129.717 29.5625C128.24 29.5625 126.998 29.1523 125.99 28.332C125.334 28.0977 125.006 27.3945 125.006 26.2227C124.959 25.5898 124.877 23.7148 124.76 20.5977L125.182 15.8164L125.287 13.7422V13.4609C125.123 12.4766 124.842 11.9844 124.443 11.9844H123.389H122.158C121.807 11.9844 121.455 12.0664 121.104 12.2305C120.869 12.207 120.576 11.8906 120.225 11.2812L120.928 8.15234C120.928 8.05859 122.346 8 125.182 7.97656C125.182 7.67188 125.346 7.28516 125.674 6.81641C125.768 3.16016 125.896 1.33203 126.061 1.33203V1.22656C126.061 1.17969 126.002 1.15625 125.885 1.15625V1.05078C125.885 0.980469 126.658 0.875 128.205 0.734375ZM126.869 1.68359H126.834V1.89453H126.939V1.75391L126.869 1.68359ZM128.381 1.75391L128.24 1.89453V1.96484L128.346 2.77344H128.416C128.697 2.49219 128.838 2.24609 128.838 2.03516V1.89453L128.732 1.75391H128.381ZM127.115 3.05469L127.01 2.94922C126.963 3.18359 126.939 3.48828 126.939 3.86328V4.00391H127.01L127.115 3.40625V3.05469ZM127.221 4.53125H127.15L127.01 8.01172V8.04688L127.115 8.15234H127.186C127.35 8.15234 127.432 7.85937 127.432 7.27344V6.46484L127.361 4.74219C127.314 4.60156 127.268 4.53125 127.221 4.53125ZM121.139 8.57422C121.139 8.73828 121.244 8.82031 121.455 8.82031H121.982C122.943 8.82031 123.834 8.77344 124.654 8.67969V8.60938C124.654 8.49219 124.08 8.43359 122.932 8.43359H121.455C121.244 8.43359 121.139 8.48047 121.139 8.57422ZM132.107 8.43359L131.65 8.60938H131.229H130.631V8.71484C131.146 8.85547 131.592 8.92578 131.967 8.92578H132.775C132.822 8.92578 132.846 8.89062 132.846 8.82031C132.799 8.5625 132.67 8.43359 132.459 8.43359H132.107ZM133.092 8.78516L132.986 8.85547V8.92578L133.092 8.96094C133.326 8.96094 133.455 8.91406 133.479 8.82031V8.78516H133.092ZM121.701 9.24219L121.631 9.3125V9.52344C121.631 9.75781 122.416 9.875 123.986 9.875C124.783 9.875 125.182 9.81641 125.182 9.69922C125.182 9.41797 124.15 9.26562 122.088 9.24219H121.701ZM129.189 9.55859L129.084 9.66406V9.69922C129.084 9.81641 129.506 9.88672 130.35 9.91016L130.947 9.875L131.756 10.0156H131.896C132.061 10.0156 132.143 9.94531 132.143 9.80469H132.107L129.436 9.55859H129.189ZM132.986 10.332L132.846 10.4727V10.5078L132.986 10.6133H133.162C133.373 10.6133 133.502 10.543 133.549 10.4023L133.443 10.332H132.986ZM122.018 10.4727L121.877 10.5781C121.877 10.6719 121.936 10.7188 122.053 10.7188L122.932 10.7539L123.881 10.7188L123.916 10.6836V10.6133C123.635 10.5195 123.107 10.4727 122.334 10.4727H122.018ZM124.76 11.1406L121.877 11.0352V11.1055C121.877 11.2695 122.768 11.3516 124.549 11.3516L124.83 11.2812V11.2461L124.76 11.1406ZM129.787 11.2461H129.611V11.3516C129.635 11.3984 130.045 11.5156 130.842 11.7031H130.912V11.6328C130.537 11.375 130.162 11.2461 129.787 11.2461ZM131.58 11.5977C132.213 11.8086 132.775 11.9141 133.268 11.9141L133.408 11.7734V11.5625L133.303 11.457H132.529C131.896 11.457 131.58 11.5039 131.58 11.5977ZM126.693 12.8633V13.1445L126.799 13.25C126.893 13.2266 126.939 13.1445 126.939 13.0039V12.8633L126.869 12.6172H126.834C126.74 12.6406 126.693 12.7227 126.693 12.8633ZM127.994 13.4961L127.818 13.3555V13.4609L127.959 13.6016H127.994V13.4961ZM126.869 13.5664H126.799L126.764 13.7422V13.918L126.799 14.1289H126.939V13.8125V13.6367L126.869 13.5664ZM126.939 15.9922H126.834V16.2734L126.939 16.4141H127.01V16.2734L126.939 15.9922ZM125.252 20.457L125.357 21.4414L125.322 22.6719L125.357 23.0234H125.463C125.604 23.0234 125.674 22.4727 125.674 21.3711V20.5625C125.674 19.4844 125.627 18.9453 125.533 18.9453C125.369 18.9453 125.275 19.4492 125.252 20.457ZM127.537 23.2344H127.467L127.432 23.4805V23.7617C127.432 23.9258 127.479 24.0195 127.572 24.043H127.643C127.736 24.0195 127.783 23.9375 127.783 23.7969C127.76 23.4219 127.678 23.2344 127.537 23.2344ZM127.818 24.7461L127.678 25.1328C127.678 25.6719 127.795 26.0117 128.029 26.1523L128.1 26.0117V25.6953C128.076 25.1094 127.982 24.793 127.818 24.7461ZM126.447 24.9922H126.342V25.5195L126.412 25.7305H126.447L126.518 25.6602V25.0625L126.447 24.9922ZM127.467 27.207V27.2422V27.4531C127.49 27.5469 127.572 27.6406 127.713 27.7344H127.959V27.6641C127.959 27.4062 127.795 27.2539 127.467 27.207ZM131.369 27.9102H131.51C132.377 27.7695 132.811 27.6172 132.811 27.4531L132.74 27.3828C131.826 27.6172 131.369 27.793 131.369 27.9102ZM126.588 27.418H126.518V27.5586C126.588 28.1445 126.846 28.4375 127.291 28.4375H127.643L127.713 28.332V28.2969C127.713 28.25 127.502 28.168 127.08 28.0508L126.588 27.418ZM144.729 11.3516C145.713 11.3516 146.908 11.7734 148.314 12.6172C149.51 13.5078 150.107 14.1172 150.107 14.4453C151.045 16.4141 151.514 17.5977 151.514 17.9961L151.549 18.2773C151.197 19.0977 151.021 19.6602 151.021 19.9648L150.811 20H147.822C147.541 20 147.201 20.0352 146.803 20.1055C143.428 19.8242 141.061 19.6836 139.701 19.6836H138.963C138.682 20.1055 138.541 20.4102 138.541 20.5977C138.705 20.8555 138.787 21.2656 138.787 21.8281C138.787 22.7188 138.928 23.2461 139.209 23.4102L139.244 23.5859V23.6211L139.033 23.5156V23.6211L139.35 23.9727C139.35 24.2773 139.561 24.6641 139.982 25.1328C140.756 26.4922 141.6 27.3359 142.514 27.6641C143.287 27.9219 144.166 28.0508 145.15 28.0508C145.314 28.0508 145.654 27.8984 146.17 27.5938C146.592 27.5 147.482 26.7383 148.842 25.3086V25.2031C148.842 25.1562 148.678 25.1094 148.35 25.0625L148.279 24.8867C148.818 23.8555 149.463 23.1758 150.213 22.8477C150.424 23.0586 150.857 23.3867 151.514 23.832C152.029 24.6289 152.721 25.5664 153.588 26.6445V26.7852C152.838 27.7695 152.299 28.2617 151.971 28.2617H151.83C151.83 27.7461 151.514 27.4531 150.881 27.3828C150.764 27.3828 150.248 27.7695 149.334 28.543C148.795 28.9648 147.869 29.3633 146.557 29.7383C145.033 30.043 143.955 30.1953 143.322 30.1953L141.318 29.4922C140.193 29.4922 139.162 28.8828 138.225 27.6641C137.826 27.2422 137.498 26.7383 137.24 26.1523C137.24 25.9648 136.982 24.9922 136.467 23.2344C136.303 22.5547 136.221 21.8984 136.221 21.2656V21.2305C136.221 18.1133 137.158 15.3828 139.033 13.0391C139.268 12.4531 139.807 12.0195 140.65 11.7383C141.213 11.5742 141.893 11.4453 142.689 11.3516C142.9 11.2578 143.58 11.2578 144.729 11.3516ZM141.494 12.0898V12.125H141.564C141.939 12.125 142.643 11.9961 143.674 11.7383C143.885 11.7148 143.99 11.6562 143.99 11.5625L143.885 11.457H143.85C143.17 11.457 142.408 11.6445 141.564 12.0195L141.494 12.0898ZM140.088 12.6875V12.7227L140.193 12.793H140.229C140.697 12.6758 140.932 12.5586 140.932 12.4414V12.2305L140.791 12.0898H140.721C140.299 12.2305 140.088 12.4297 140.088 12.6875ZM145.502 12.3359H144.447V12.4062C144.447 12.5 144.928 12.5703 145.889 12.6172H145.924V12.4766C145.924 12.4297 145.783 12.3828 145.502 12.3359ZM143.006 12.8633V12.8984C143.006 12.9922 143.486 13.1094 144.447 13.25L144.518 13.2148V13.0742C144.33 12.8164 144.014 12.6875 143.568 12.6875H143.463C143.158 12.7109 143.006 12.7695 143.006 12.8633ZM145.15 13.0742V13.1094C146.486 13.8828 147.201 14.2695 147.295 14.2695H147.33L147.682 14.1289L147.893 14.1992L147.928 14.1289V14.0938C147.834 14.0234 147.635 13.9531 147.33 13.8828L146.627 13.5664C146.439 13.168 146.064 12.9688 145.502 12.9688H145.396C145.232 12.9922 145.15 13.0273 145.15 13.0742ZM140.967 14.0938C141.201 13.9062 141.67 13.707 142.373 13.4961V13.4258L142.338 13.3555H141.986C141.307 13.543 140.967 13.7891 140.967 14.0938ZM139.104 16.4141V16.5195C139.104 16.7773 141.236 17.0703 145.502 17.3984L145.854 17.5039L146.311 17.4688C147.248 17.7734 147.881 17.9258 148.209 17.9258C148.209 17.9961 148.279 18.0547 148.42 18.1016C148.561 17.8906 148.631 17.6914 148.631 17.5039V16.8359C148.631 16.5312 148.045 15.8516 146.873 14.7969C146.334 14.2578 145.725 13.9531 145.045 13.8828L143.85 13.6719C141.904 14.0703 140.627 14.5508 140.018 15.1133C139.76 15.6055 139.455 16.0391 139.104 16.4141ZM139.49 14.3047V14.375H139.561C139.865 14.3047 140.018 14.2227 140.018 14.1289V14.0938H139.842C139.725 14.0938 139.607 14.1641 139.49 14.3047ZM147.893 14.7969C147.939 14.9844 148.045 15.0781 148.209 15.0781H148.279L148.35 14.9727V14.7617L148.209 14.5859C147.998 14.5859 147.893 14.6562 147.893 14.7969ZM138.822 14.9727L138.752 15.0781V15.1133H138.822L138.963 15.0078V14.9727H138.822ZM148.771 15.2539H148.631C148.889 16.0273 149.076 16.4492 149.193 16.5195H149.334L149.439 16.4492C149.252 15.6992 149.053 15.3242 148.842 15.3242L148.771 15.2539ZM139.139 15.8867C139.279 15.8633 139.35 15.7695 139.35 15.6055V15.5703C139.209 15.6172 139.139 15.7227 139.139 15.8867ZM149.967 16.8359L149.861 16.9062V17.1523L149.967 17.293C150.061 17.2695 150.107 17.1875 150.107 17.0469V16.9062L150.072 16.8359H149.967ZM138.752 17.3281V17.4688L138.822 17.5391H138.893C139.057 17.4688 139.197 17.3398 139.314 17.1523V17.0469H139.139C138.998 17.0469 138.869 17.1406 138.752 17.3281ZM137.311 17.1172C137.123 17.3047 136.959 17.7734 136.818 18.5234H136.889C137.029 18.5234 137.24 18.1133 137.521 17.293C137.475 17.1758 137.404 17.1172 137.311 17.1172ZM140.896 17.5391V17.6445C141.342 17.9492 142.15 18.1016 143.322 18.1016H143.639L144.096 18.0664V17.9258C143.135 17.7148 142.068 17.5859 140.896 17.5391ZM147.33 18.4531H147.225V18.5586H147.33V18.4531ZM140.545 18.7344V18.8047C141.014 18.9219 142.256 19.0391 144.271 19.1562V19.1914V19.2266L143.533 19.332C143.533 19.4023 143.838 19.4375 144.447 19.4375C145.432 19.4375 145.924 19.3906 145.924 19.2969C145.924 19.0625 144.131 18.875 140.545 18.7344ZM136.994 18.9805H136.818V19.1914C136.818 19.332 136.854 19.4023 136.924 19.4023C137.041 19.4023 137.111 19.2852 137.135 19.0508L136.994 18.9805ZM139.842 19.0508L139.666 19.0859V19.2969H139.842V19.1562V19.0859V19.0508ZM138.717 19.332V19.3672H138.752L139.35 19.2969V19.2266L139.244 19.0859H139.139C138.928 19.0859 138.787 19.168 138.717 19.332ZM147.26 19.4023C147.26 19.4961 147.471 19.543 147.893 19.543L148.209 19.5078V19.4375C148.209 19.3438 147.986 19.2969 147.541 19.2969C147.354 19.3438 147.26 19.3789 147.26 19.4023ZM136.818 20.3164V20.4219V20.457C136.795 20.5273 136.783 20.6914 136.783 20.9492V21.0898C136.783 21.5117 136.9 21.8867 137.135 22.2148H137.17C137.17 21.0898 137.053 20.457 136.818 20.3164ZM137.451 23.375H137.346V23.4453L137.451 23.5156H137.521V23.4453L137.451 23.375ZM137.697 23.9727L137.662 24.0078V24.0781C137.756 24.4531 137.896 24.6406 138.084 24.6406V24.6055V24.5352C138.084 24.3477 137.955 24.1602 137.697 23.9727ZM149.158 24.2891L149.229 24.3945H149.404C149.545 24.3945 149.627 24.3477 149.65 24.2539L149.51 24.1133H149.475C149.311 24.1133 149.205 24.1719 149.158 24.2891ZM148.35 26.3281L148.42 26.3633H148.455C148.713 26.3633 148.877 26.2109 148.947 25.9062V25.8359C148.689 25.8359 148.49 26 148.35 26.3281ZM150.811 26.2578L150.846 26.293H150.951C151.092 26.1992 151.162 26.0703 151.162 25.9062H151.057C150.893 26 150.811 26.1172 150.811 26.2578ZM152.041 25.9062H152.006V25.9766C152.076 26.2578 152.182 26.3984 152.322 26.3984H152.357L152.428 26.3281V26.293C152.381 26.0352 152.252 25.9062 152.041 25.9062ZM150.002 26.6445L150.107 26.7148C150.459 26.5977 150.635 26.4453 150.635 26.2578V26.1875H150.6C150.271 26.1875 150.072 26.3398 150.002 26.6445ZM147.26 27.418H147.33C147.518 27.3477 147.623 27.2305 147.646 27.0664L147.611 27.0312C147.377 27.1719 147.26 27.3008 147.26 27.418ZM149.334 27.5938H149.475C149.709 27.3828 149.826 27.2305 149.826 27.1367H149.791C149.486 27.2305 149.334 27.3828 149.334 27.5938ZM139.35 27.9102H139.244V28.0508C139.291 28.168 139.49 28.2969 139.842 28.4375L139.982 28.543C139.725 28.1445 139.514 27.9336 139.35 27.9102ZM141.811 28.0508H141.775V28.0859C141.775 28.1797 142.021 28.2852 142.514 28.4023L142.549 28.3672V28.2969C142.244 28.1328 141.998 28.0508 141.811 28.0508ZM143.885 28.4375H143.779V28.543H143.885V28.4375ZM147.541 28.9648C147.775 28.9648 147.963 28.7891 148.104 28.4375H147.998C147.693 28.6016 147.541 28.7773 147.541 28.9648ZM145.08 29.3164L144.342 29.2461H144.201C143.99 29.2461 143.873 29.293 143.85 29.3867V29.457L143.99 29.5625H144.623C145.35 29.5625 146.205 29.4336 147.189 29.1758C147.143 29.0352 147.002 28.9648 146.768 28.9648H146.592C146.029 28.9648 145.525 29.082 145.08 29.3164Z" fill="#CACACA"/>
</svg>
